<!-- Exported by Character Map UWP -->
<svg height="100%" viewBox="32 -225 288 279" width="100%" xmlns="http://www.w3.org/2000/svg" xmlns:xlink="http://www.w3.org/1999/xlink">
  <path d="M295.5,-141.75C299.083,-140.5 302.354,-138.75 305.313,-136.5C308.271,-134.25 310.813,-131.646 312.938,-128.688C315.063,-125.729 316.688,-122.479 317.813,-118.938C318.938,-115.396 319.5,-111.708 319.5,-107.875L319.5,-53.875C319.5,-43.9583 318.208,-34.4167 315.625,-25.25C313.042,-16.0833 309.417,-7.52083 304.75,0.4375C300.083,8.39583 294.458,15.6667 287.875,22.25C281.292,28.8333 274,34.4583 266,39.125C258,43.7917 249.417,47.4167 240.25,50C231.083,52.5833 221.542,53.875 211.625,53.875L139.75,53.875C129.833,53.875 120.292,52.5833 111.125,50C101.958,47.4167 93.3958,43.7917 85.4375,39.125C77.4792,34.4583 70.2083,28.8333 63.625,22.25C57.0417,15.6667 51.4167,8.39583 46.75,0.4375C42.0833,-7.52083 38.4583,-16.0833 35.875,-25.25C33.2917,-34.4167 32,-43.9583 32,-53.875L32,-107.875C32,-111.292 32.5,-114.667 33.5,-118C34.5,-121.333 35.9167,-124.417 37.75,-127.25C39.5833,-130.083 41.7917,-132.625 44.375,-134.875C46.9583,-137.125 49.875,-138.917 53.125,-140.25L55,-143.75C53.4167,-146.5 52.2083,-149.438 51.375,-152.563C50.5417,-155.688 50.125,-158.833 50.125,-162C50.125,-166.917 51.0625,-171.542 52.9375,-175.875C54.8125,-180.208 57.375,-183.979 60.625,-187.188C63.875,-190.396 67.6667,-192.938 72,-194.813C76.3333,-196.687 80.9583,-197.625 85.875,-197.625C90.7083,-197.625 95.3958,-196.687 99.9375,-194.813C104.479,-192.938 108.417,-190.25 111.75,-186.75L112.875,-188.125C112.875,-193.125 113.792,-197.854 115.625,-202.313C117.458,-206.771 119.979,-210.646 123.188,-213.938C126.396,-217.229 130.188,-219.833 134.563,-221.75C138.938,-223.667 143.667,-224.625 148.75,-224.625C154,-224.625 158.938,-223.562 163.563,-221.438C168.188,-219.312 172.25,-216.333 175.75,-212.5C179.25,-216.333 183.313,-219.312 187.938,-221.438C192.563,-223.562 197.5,-224.625 202.75,-224.625C207.667,-224.625 212.313,-223.687 216.688,-221.813C221.063,-219.937 224.875,-217.375 228.125,-214.125C231.375,-210.875 233.938,-207.062 235.813,-202.688C237.688,-198.312 238.625,-193.667 238.625,-188.75L241.875,-188.75C245.125,-191.667 248.812,-193.875 252.938,-195.375C257.063,-196.875 261.292,-197.625 265.625,-197.625C270.625,-197.625 275.292,-196.687 279.625,-194.813C283.958,-192.938 287.75,-190.375 291,-187.125C294.25,-183.875 296.813,-180.083 298.688,-175.75C300.563,-171.417 301.5,-166.75 301.5,-161.75C301.5,-158.25 300.979,-154.771 299.938,-151.313C298.896,-147.854 297.417,-144.667 295.5,-141.75Z" fill="#000000" fill-opacity="1">
  </path>
  <path d="M95.625,-54.75L55.25,-95.125C51.75,-98.625 50,-102.833 50,-107.75C50,-110.25 50.4583,-112.583 51.375,-114.75C52.2917,-116.917 53.5625,-118.813 55.1875,-120.438C56.8125,-122.063 58.7083,-123.354 60.875,-124.313C63.0417,-125.271 65.375,-125.75 67.875,-125.75C70.5417,-125.75 72.7917,-125.292 74.625,-124.375C76.4583,-123.458 78.0833,-122.458 79.5,-121.375C80.9167,-120.292 82.2708,-119.292 83.5625,-118.375C84.8542,-117.458 86.3333,-117 88,-117C90,-117 91.6458,-117.771 92.9375,-119.313C94.2292,-120.854 94.875,-122.583 94.875,-124.5C94.875,-126.583 94.125,-128.375 92.625,-129.875L73.25,-149C71.5833,-150.667 70.2708,-152.604 69.3125,-154.813C68.3542,-157.021 67.875,-159.333 67.875,-161.75C67.875,-164.25 68.3542,-166.583 69.3125,-168.75C70.2708,-170.917 71.5625,-172.813 73.1875,-174.438C74.8125,-176.063 76.7083,-177.354 78.875,-178.313C81.0417,-179.271 83.375,-179.75 85.875,-179.75C88.2917,-179.75 90.6042,-179.292 92.8125,-178.375C95.0208,-177.458 96.9583,-176.167 98.625,-174.5L118.5,-154.625C119.75,-153.375 121.333,-152.75 123.25,-152.75C125.333,-152.75 127.125,-153.5 128.625,-155C130.125,-156.5 130.875,-158.292 130.875,-160.375L130.875,-188.75C130.875,-191.25 131.333,-193.583 132.25,-195.75C133.167,-197.917 134.438,-199.813 136.063,-201.438C137.688,-203.063 139.583,-204.333 141.75,-205.25C143.917,-206.167 146.25,-206.625 148.75,-206.625C151.25,-206.625 153.583,-206.167 155.75,-205.25C157.917,-204.333 159.813,-203.063 161.438,-201.438C163.063,-199.813 164.354,-197.917 165.313,-195.75C166.271,-193.583 166.75,-191.25 166.75,-188.75L166.75,-170.75C166.75,-168.25 167.625,-166.125 169.375,-164.375C171.125,-162.625 173.25,-161.75 175.75,-161.75C178.25,-161.75 180.375,-162.625 182.125,-164.375C183.875,-166.125 184.75,-168.25 184.75,-170.75L184.75,-188.75C184.75,-191.25 185.229,-193.583 186.188,-195.75C187.146,-197.917 188.438,-199.813 190.063,-201.438C191.688,-203.063 193.583,-204.333 195.75,-205.25C197.917,-206.167 200.25,-206.625 202.75,-206.625C205.25,-206.625 207.583,-206.167 209.75,-205.25C211.917,-204.333 213.812,-203.063 215.438,-201.438C217.062,-199.813 218.333,-197.917 219.25,-195.75C220.167,-193.583 220.625,-191.25 220.625,-188.75L220.625,-160.375C220.625,-158.208 221.354,-156.396 222.813,-154.938C224.271,-153.479 226.083,-152.75 228.25,-152.75C230.167,-152.75 231.75,-153.375 233,-154.625L252.875,-174.5C256.375,-178 260.583,-179.75 265.5,-179.75C268,-179.75 270.333,-179.271 272.5,-178.313C274.667,-177.354 276.563,-176.063 278.188,-174.438C279.813,-172.813 281.104,-170.917 282.063,-168.75C283.021,-166.583 283.5,-164.25 283.5,-161.75C283.5,-159.333 283.042,-157.021 282.125,-154.813C281.208,-152.604 279.917,-150.667 278.25,-149L258.875,-129.875C257.375,-128.375 256.625,-126.583 256.625,-124.5C256.625,-122.583 257.271,-120.854 258.563,-119.313C259.854,-117.771 261.5,-117 263.5,-117C265.083,-117 266.542,-117.458 267.875,-118.375C269.208,-119.292 270.583,-120.292 272,-121.375C273.417,-122.458 275.021,-123.458 276.813,-124.375C278.604,-125.292 280.833,-125.75 283.5,-125.75C286,-125.75 288.333,-125.271 290.5,-124.313C292.667,-123.354 294.563,-122.063 296.188,-120.438C297.813,-118.813 299.104,-116.917 300.063,-114.75C301.021,-112.583 301.5,-110.25 301.5,-107.75C301.5,-102.833 299.75,-98.625 296.25,-95.125L255.875,-54.75Z" fill="#13A10E" fill-opacity="1">
  </path>
  <path d="M232.375,-98.875L238.625,-98.875C241.125,-98.875 243.458,-98.3958 245.625,-97.4375C247.792,-96.4792 249.688,-95.1875 251.313,-93.5625C252.938,-91.9375 254.229,-90.0417 255.188,-87.875C256.146,-85.7083 256.625,-83.375 256.625,-80.875C256.625,-78.375 256.146,-76.0417 255.188,-73.875C254.229,-71.7083 252.938,-69.8125 251.313,-68.1875C249.688,-66.5625 247.792,-65.2708 245.625,-64.3125C243.458,-63.3542 241.125,-62.875 238.625,-62.875L112.875,-62.875C110.375,-62.875 108.042,-63.3542 105.875,-64.3125C103.708,-65.2708 101.813,-66.5625 100.188,-68.1875C98.5625,-69.8125 97.2708,-71.7083 96.3125,-73.875C95.3542,-76.0417 94.875,-78.375 94.875,-80.875C94.875,-83.375 95.3542,-85.7083 96.3125,-87.875C97.2708,-90.0417 98.5625,-91.9375 100.188,-93.5625C101.813,-95.1875 103.708,-96.4792 105.875,-97.4375C108.042,-98.3958 110.375,-98.875 112.875,-98.875L119.125,-98.875C117.375,-100.625 115.708,-102.271 114.125,-103.813C112.542,-105.354 111.146,-106.979 109.938,-108.688C108.729,-110.396 107.75,-112.25 107,-114.25C106.25,-116.25 105.875,-118.583 105.875,-121.25C105.875,-124.333 106.458,-127.25 107.625,-130C108.792,-132.75 110.396,-135.146 112.438,-137.188C114.479,-139.229 116.854,-140.833 119.563,-142C122.271,-143.167 125.208,-143.75 128.375,-143.75C131.792,-143.75 134.813,-143.083 137.438,-141.75C140.063,-140.417 142.479,-138.75 144.688,-136.75C146.896,-134.75 149.021,-132.604 151.063,-130.313C153.104,-128.021 155.313,-125.875 157.688,-123.875C160.063,-121.875 162.688,-120.208 165.563,-118.875C168.438,-117.542 171.833,-116.875 175.75,-116.875C179.583,-116.875 182.958,-117.542 185.875,-118.875C188.792,-120.208 191.417,-121.875 193.75,-123.875C196.083,-125.875 198.271,-128.021 200.313,-130.313C202.354,-132.604 204.479,-134.75 206.688,-136.75C208.896,-138.75 211.312,-140.417 213.938,-141.75C216.562,-143.083 219.625,-143.75 223.125,-143.75C226.208,-143.75 229.104,-143.167 231.813,-142C234.521,-140.833 236.896,-139.229 238.938,-137.188C240.979,-135.146 242.583,-132.75 243.75,-130C244.917,-127.25 245.5,-124.333 245.5,-121.25C245.5,-118.583 245.146,-116.25 244.438,-114.25C243.729,-112.25 242.771,-110.396 241.563,-108.688C240.354,-106.979 238.958,-105.354 237.375,-103.813C235.792,-102.271 234.125,-100.625 232.375,-98.875Z" fill="#79DB75" fill-opacity="1">
  </path>
  <path d="M211.625,-107.875C214.125,-107.875 216.458,-107.396 218.625,-106.438C220.792,-105.479 222.688,-104.187 224.313,-102.563C225.938,-100.937 227.229,-99.0417 228.188,-96.875C229.146,-94.7083 229.625,-92.375 229.625,-89.875C229.625,-87.375 229.146,-85.0417 228.188,-82.875C227.229,-80.7083 225.938,-78.8125 224.313,-77.1875C222.688,-75.5625 220.792,-74.2708 218.625,-73.3125C216.458,-72.3542 214.125,-71.875 211.625,-71.875C209.125,-71.875 206.792,-72.3542 204.625,-73.3125C202.458,-74.2708 200.562,-75.5625 198.938,-77.1875C197.312,-78.8125 196.042,-80.7083 195.125,-82.875C194.208,-85.0417 193.75,-87.375 193.75,-89.875C193.75,-92.375 194.208,-94.7083 195.125,-96.875C196.042,-99.0417 197.312,-100.937 198.938,-102.563C200.562,-104.187 202.458,-105.479 204.625,-106.438C206.792,-107.396 209.125,-107.875 211.625,-107.875Z" fill="#FFB900" fill-opacity="1">
  </path>
  <path d="M85.875,-143.75C88.375,-143.75 90.7083,-143.271 92.875,-142.313C95.0417,-141.354 96.9375,-140.063 98.5625,-138.438C100.188,-136.813 101.479,-134.917 102.438,-132.75C103.396,-130.583 103.875,-128.25 103.875,-125.75C103.875,-123.25 103.396,-120.917 102.438,-118.75C101.479,-116.583 100.188,-114.687 98.5625,-113.063C96.9375,-111.437 95.0417,-110.167 92.875,-109.25C90.7083,-108.333 88.375,-107.875 85.875,-107.875C83.375,-107.875 81.0417,-108.333 78.875,-109.25C76.7083,-110.167 74.8125,-111.437 73.1875,-113.063C71.5625,-114.687 70.2708,-116.583 69.3125,-118.75C68.3542,-120.917 67.875,-123.25 67.875,-125.75C67.875,-128.25 68.3542,-130.583 69.3125,-132.75C70.2708,-134.917 71.5625,-136.813 73.1875,-138.438C74.8125,-140.063 76.7083,-141.354 78.875,-142.313C81.0417,-143.271 83.375,-143.75 85.875,-143.75Z" fill="#EBA300" fill-opacity="1">
  </path>
  <path d="M202.75,-161.75L211.75,-161.75L230.125,-154.125L247.625,-161.75L256.625,-161.75C256.625,-158 255.917,-154.5 254.5,-151.25C253.083,-148 251.146,-145.146 248.688,-142.688C246.229,-140.229 243.375,-138.292 240.125,-136.875C236.875,-135.458 233.375,-134.75 229.625,-134.75C225.875,-134.75 222.375,-135.458 219.125,-136.875C215.875,-138.292 213.042,-140.229 210.625,-142.688C208.208,-145.146 206.292,-148 204.875,-151.25C203.458,-154.5 202.75,-158 202.75,-161.75ZM130.875,-102L140.375,-111.5L164,-122.25L172.125,-143.25L181.625,-152.75C185.042,-149.333 187.646,-145.438 189.438,-141.063C191.229,-136.688 192.125,-132.125 192.125,-127.375C192.125,-122.458 191.167,-117.833 189.25,-113.5C187.333,-109.167 184.75,-105.354 181.5,-102.063C178.25,-98.7708 174.438,-96.1667 170.063,-94.25C165.688,-92.3333 161.083,-91.375 156.25,-91.375C151.5,-91.375 146.938,-92.2917 142.563,-94.125C138.188,-95.9583 134.292,-98.5833 130.875,-102ZM148.75,-166.25C148.75,-164.417 148.396,-162.688 147.688,-161.063C146.979,-159.438 146.042,-158 144.875,-156.75C143.708,-155.5 142.292,-154.521 140.625,-153.813C138.958,-153.104 137.208,-152.75 135.375,-152.75C133.458,-152.75 131.688,-153.104 130.063,-153.813C128.438,-154.521 127.021,-155.479 125.813,-156.688C124.604,-157.896 123.646,-159.313 122.938,-160.938C122.229,-162.563 121.875,-164.333 121.875,-166.25C121.875,-168.083 122.229,-169.813 122.938,-171.438C123.646,-173.063 124.625,-174.5 125.875,-175.75C127.125,-177 128.563,-177.979 130.188,-178.688C131.813,-179.396 133.542,-179.75 135.375,-179.75C137.208,-179.75 138.938,-179.396 140.563,-178.688C142.188,-177.979 143.604,-177 144.813,-175.75C146.021,-174.5 146.979,-173.063 147.688,-171.438C148.396,-169.813 148.75,-168.083 148.75,-166.25Z" fill="#EF6950" fill-opacity="1">
  </path>
  <path d="M211.625,-161.75L247.625,-161.75C247.625,-159.25 247.146,-156.917 246.188,-154.75C245.229,-152.583 243.938,-150.688 242.313,-149.063C240.688,-147.438 238.792,-146.146 236.625,-145.188C234.458,-144.229 232.125,-143.75 229.625,-143.75C227.125,-143.75 224.792,-144.229 222.625,-145.188C220.458,-146.146 218.562,-147.438 216.938,-149.063C215.312,-150.688 214.021,-152.583 213.063,-154.75C212.104,-156.917 211.625,-159.25 211.625,-161.75ZM140.375,-111.5L172.125,-143.25C174.208,-141.167 175.813,-138.729 176.938,-135.938C178.063,-133.146 178.625,-130.292 178.625,-127.375C178.625,-124.292 178.042,-121.375 176.875,-118.625C175.708,-115.875 174.104,-113.479 172.063,-111.438C170.021,-109.396 167.646,-107.792 164.938,-106.625C162.229,-105.458 159.333,-104.875 156.25,-104.875C153.333,-104.875 150.479,-105.458 147.688,-106.625C144.896,-107.792 142.458,-109.417 140.375,-111.5Z" fill="#AF0D1A" fill-opacity="1">
  </path>
  <path d="M292.5,-80.875C295,-80.875 297.125,-80 298.875,-78.25C300.625,-76.5 301.5,-74.375 301.5,-71.875L301.5,-53.875C301.5,-50.875 301.375,-47.875 301.125,-44.875L290.5,-34.875C292.75,-31.9583 295.042,-29.3333 297.375,-27C294.458,-17.5833 290.188,-9.02083 284.563,-1.3125C278.938,6.39583 272.354,13 264.813,18.5C257.271,24 248.958,28.2708 239.875,31.3125C230.792,34.3542 221.375,35.875 211.625,35.875L139.75,35.875C130,35.875 120.583,34.3542 111.5,31.3125C102.417,28.2708 94.125,24 86.625,18.5C79.125,13 72.5625,6.39583 66.9375,-1.3125C61.3125,-9.02083 57.0417,-17.5417 54.125,-26.875L62.75,-36C60.5833,-37.4167 58.4583,-38.8542 56.375,-40.3125C54.2917,-41.7708 52.2917,-43.3333 50.375,-45C50.125,-48 50,-50.9583 50,-53.875L50,-71.875C50,-74.375 50.875,-76.5 52.625,-78.25C54.375,-80 56.5,-80.875 59,-80.875Z" fill="#FFFFFF" fill-opacity="1">
  </path>
  <path d="M50.375,-45L301.125,-45C300.458,-38.8333 299.208,-32.8333 297.375,-27L54.125,-27C52.2083,-32.8333 50.9583,-38.8333 50.375,-45Z" fill="#31D2F7" fill-opacity="1">
  </path>
</svg>