<!-- Exported by Character Map UWP -->
<svg height="100%" viewBox="32 -234 288 288" width="100%" xmlns="http://www.w3.org/2000/svg" xmlns:xlink="http://www.w3.org/1999/xlink">
  <path d="M283.5,-233.625C288.5,-233.625 293.188,-232.687 297.563,-230.813C301.938,-228.937 305.75,-226.375 309,-223.125C312.25,-219.875 314.813,-216.062 316.688,-211.688C318.563,-207.312 319.5,-202.625 319.5,-197.625L319.5,18C319.5,22.9167 318.542,27.5625 316.625,31.9375C314.708,36.3125 312.125,40.125 308.875,43.375C305.625,46.625 301.813,49.1875 297.438,51.0625C293.063,52.9375 288.417,53.875 283.5,53.875L67.875,53.875C62.9583,53.875 58.3125,52.9375 53.9375,51.0625C49.5625,49.1875 45.75,46.625 42.5,43.375C39.25,40.125 36.6875,36.3125 34.8125,31.9375C32.9375,27.5625 32,22.9167 32,18L32,-197.625C32,-202.542 32.9375,-207.188 34.8125,-211.563C36.6875,-215.938 39.25,-219.75 42.5,-223C45.75,-226.25 49.5625,-228.833 53.9375,-230.75C58.3125,-232.667 62.9583,-233.625 67.875,-233.625Z" fill="#000000" fill-opacity="1">
  </path>
  <path d="M50,18L50,-9L301.5,-9L301.5,18C301.5,20.5 301.021,22.8333 300.063,25C299.104,27.1667 297.813,29.0625 296.188,30.6875C294.563,32.3125 292.667,33.5833 290.5,34.5C288.333,35.4167 286,35.875 283.5,35.875L67.875,35.875C65.375,35.875 63.0417,35.4167 60.875,34.5C58.7083,33.5833 56.8125,32.3125 55.1875,30.6875C53.5625,29.0625 52.2917,27.1667 51.375,25C50.4583,22.8333 50,20.5 50,18Z" fill="#383838" fill-opacity="1">
  </path>
  <path d="M283.5,9L67.875,9C65.375,9 63.0417,8.52083 60.875,7.5625C58.7083,6.60417 56.8125,5.3125 55.1875,3.6875C53.5625,2.0625 52.2917,0.166667 51.375,-2C50.4583,-4.16667 50,-6.5 50,-9L50,-197.625C50,-200.125 50.4583,-202.458 51.375,-204.625C52.2917,-206.792 53.5625,-208.688 55.1875,-210.313C56.8125,-211.938 58.7083,-213.229 60.875,-214.188C63.0417,-215.146 65.375,-215.625 67.875,-215.625L283.5,-215.625C286,-215.625 288.333,-215.146 290.5,-214.188C292.667,-213.229 294.563,-211.938 296.188,-210.313C297.813,-208.688 299.104,-206.792 300.063,-204.625C301.021,-202.458 301.5,-200.125 301.5,-197.625L301.5,-9C301.5,-6.5 301.021,-4.16667 300.063,-2C299.104,0.166667 297.813,2.0625 296.188,3.6875C294.563,5.3125 292.667,6.60417 290.5,7.5625C288.333,8.52083 286,9 283.5,9Z" fill="#757575" fill-opacity="1">
  </path>
  <path d="M292.5,-179.75L292.5,-98.25L283.5,-87L292.5,-71.875L292.5,-8.875C292.5,-6.45833 291.646,-4.375 289.938,-2.625C288.229,-0.875 286.167,0 283.75,0L193.75,0L153.625,-38.625L153.625,-198.125L283.75,-198.125Z" fill="#F03A17" fill-opacity="1">
  </path>
  <path d="M292.5,-71.875L59,-71.875L59,-102.125L292.5,-102.125ZM283.5,-206.625C286,-206.625 288.125,-205.75 289.875,-204C291.625,-202.25 292.5,-200.125 292.5,-197.625L292.5,-179.75L64.25,-179.75L59,-188.75L59,-197.625C59,-200.042 59.875,-202.146 61.625,-203.938C63.375,-205.729 65.4583,-206.625 67.875,-206.625Z" fill="#AF0D1A" fill-opacity="1">
  </path>
  <path d="M283.5,-71.875C283.5,-66.875 282.563,-62.2083 280.688,-57.875C278.813,-53.5417 276.25,-49.75 273,-46.5C269.75,-43.25 265.958,-40.6875 261.625,-38.8125C257.292,-36.9375 252.625,-36 247.625,-36C245.125,-36 243,-36.875 241.25,-38.625C239.5,-40.375 238.625,-42.5 238.625,-45C238.625,-49.9167 239.583,-54.5417 241.5,-58.875C243.417,-63.2083 246,-67 249.25,-70.25C252.5,-73.5 256.313,-76.0833 260.688,-78C265.063,-79.9167 269.708,-80.875 274.625,-80.875L283.5,-80.875Z" fill="#73AA24" fill-opacity="1">
  </path>
  <path d="M184.75,-80.875C187.667,-80.875 189.792,-80.0417 191.125,-78.375C192.458,-76.7083 193.333,-74.5417 193.75,-71.875L197.625,-48C197.958,-46 198.375,-44.0208 198.875,-42.0625C199.375,-40.1042 199.625,-38.0833 199.625,-36C199.625,-33.9167 199.375,-31.8958 198.875,-29.9375C198.375,-27.9792 197.958,-26 197.625,-24L193.75,0L67.875,0C65.4583,0 63.375,-0.895833 61.625,-2.6875C59.875,-4.47917 59,-6.58333 59,-9L59,-71.875C59,-74.2917 59.875,-76.3958 61.625,-78.1875C63.375,-79.9792 65.4583,-80.875 67.875,-80.875Z" fill="#F2F2F2" fill-opacity="1">
  </path>
  <path d="M148.75,-179.75L153.625,-170.75L153.625,-103.375L59,-103.375L59,-188.75C61.1667,-188.75 62.9167,-188.271 64.25,-187.313C65.5833,-186.354 66.8125,-185.313 67.9375,-184.188C69.0625,-183.063 70.2917,-182.042 71.625,-181.125C72.9583,-180.208 74.7083,-179.75 76.875,-179.75C79.125,-179.75 80.9167,-180.208 82.25,-181.125C83.5833,-182.042 84.8125,-183.063 85.9375,-184.188C87.0625,-185.313 88.2917,-186.354 89.625,-187.313C90.9583,-188.271 92.7083,-188.75 94.875,-188.75C97.2083,-188.75 99.0208,-189.208 100.313,-190.125C101.604,-191.042 102.792,-192.063 103.875,-193.188C104.958,-194.313 106.146,-195.333 107.438,-196.25C108.729,-197.167 110.542,-197.625 112.875,-197.625C115.125,-197.625 116.917,-197.167 118.25,-196.25C119.583,-195.333 120.813,-194.313 121.938,-193.188C123.063,-192.063 124.292,-191.042 125.625,-190.125C126.958,-189.208 128.708,-188.75 130.875,-188.75C132.792,-188.75 134.438,-188.354 135.813,-187.563C137.188,-186.771 138.5,-185.667 139.75,-184.25C141,-182.833 142.313,-181.729 143.688,-180.938C145.063,-180.146 146.75,-179.75 148.75,-179.75Z" fill="#8CBD18" fill-opacity="1">
  </path>
  <path d="M104,-134.75L104,-143.75L140,-143.75L140,-134.75C140,-131.583 138.875,-128.875 136.625,-126.625C135.625,-125.542 134.604,-124.438 133.563,-123.313C132.521,-122.188 131.396,-121.146 130.188,-120.188C128.979,-119.229 127.708,-118.438 126.375,-117.813C125.042,-117.188 123.583,-116.875 122,-116.875C120.333,-116.875 118.833,-117.188 117.5,-117.813C116.167,-118.438 114.896,-119.25 113.688,-120.25C112.479,-121.25 111.354,-122.333 110.313,-123.5C109.271,-124.667 108.25,-125.792 107.25,-126.875C105.083,-129.208 104,-131.833 104,-134.75ZM67.875,-161.75C67.875,-163.25 67.8958,-164.75 67.9375,-166.25C67.9792,-167.75 68,-169.25 68,-170.75L104,-170.75L104,-161.75C104,-160.083 103.688,-158.583 103.063,-157.25C102.438,-155.917 101.646,-154.667 100.688,-153.5C99.7292,-152.333 98.6667,-151.229 97.5,-150.188C96.3333,-149.146 95.2083,-148.125 94.125,-147.125C91.875,-144.875 89.1667,-143.75 86,-143.75C84.3333,-143.75 82.4375,-144.375 80.3125,-145.625C78.1875,-146.875 76.2083,-148.396 74.375,-150.188C72.5417,-151.979 71,-153.917 69.75,-156C68.5,-158.083 67.875,-160 67.875,-161.75Z" fill="#EBA300" fill-opacity="1">
  </path>
  <path d="M76.875,-62.875C74.4583,-62.875 72.3542,-63.7708 70.5625,-65.5625C68.7708,-67.3542 67.875,-69.4583 67.875,-71.875C70.375,-71.875 72.5,-71 74.25,-69.25C76,-67.5 76.875,-65.375 76.875,-62.875ZM112.875,-27C110.375,-27 108.25,-27.875 106.5,-29.625C104.75,-31.375 103.875,-33.5 103.875,-36C106.375,-36 108.5,-35.125 110.25,-33.375C112,-31.625 112.875,-29.5 112.875,-27ZM148.75,-62.875C146.333,-62.875 144.229,-63.7708 142.438,-65.5625C140.646,-67.3542 139.75,-69.4583 139.75,-71.875C142.25,-71.875 144.375,-71 146.125,-69.25C147.875,-67.5 148.75,-65.375 148.75,-62.875ZM184.75,-62.875C182.25,-62.875 180.125,-63.75 178.375,-65.5C176.625,-67.25 175.75,-69.375 175.75,-71.875C178.25,-71.875 180.375,-71 182.125,-69.25C183.875,-67.5 184.75,-65.375 184.75,-62.875Z" fill="#CCCCCC" fill-opacity="1">
  </path>
  <path d="M76.875,-27C74.4583,-27 72.3542,-27.8958 70.5625,-29.6875C68.7708,-31.4792 67.875,-33.5833 67.875,-36C70.375,-36 72.5,-35.125 74.25,-33.375C76,-31.625 76.875,-29.5 76.875,-27ZM112.875,-62.875C110.375,-62.875 108.25,-63.75 106.5,-65.5C104.75,-67.25 103.875,-69.375 103.875,-71.875C106.375,-71.875 108.5,-71 110.25,-69.25C112,-67.5 112.875,-65.375 112.875,-62.875ZM148.75,-27C146.333,-27 144.229,-27.8958 142.438,-29.6875C140.646,-31.4792 139.75,-33.5833 139.75,-36C142.25,-36 144.375,-35.125 146.125,-33.375C147.875,-31.625 148.75,-29.5 148.75,-27ZM184.75,-27C182.25,-27 180.125,-27.875 178.375,-29.625C176.625,-31.375 175.75,-33.5 175.75,-36C178.25,-36 180.375,-35.125 182.125,-33.375C183.875,-31.625 184.75,-29.5 184.75,-27Z" fill="#FFFFFF" fill-opacity="1">
  </path>
  <path d="M85.875,-45C85.875,-47.4167 86.7708,-49.5 88.5625,-51.25C90.3542,-53 92.4583,-53.875 94.875,-53.875C94.875,-51.4583 93.9792,-49.375 92.1875,-47.625C90.3958,-45.875 88.2917,-45 85.875,-45ZM121.875,-45C121.875,-47.4167 122.771,-49.5 124.563,-51.25C126.354,-53 128.458,-53.875 130.875,-53.875C130.875,-51.4583 129.979,-49.375 128.188,-47.625C126.396,-45.875 124.292,-45 121.875,-45ZM157.75,-45C157.75,-47.4167 158.646,-49.5 160.438,-51.25C162.229,-53 164.333,-53.875 166.75,-53.875C166.75,-51.4583 165.854,-49.375 164.063,-47.625C162.271,-45.875 160.167,-45 157.75,-45ZM85.875,-9C85.875,-11.5 86.75,-13.625 88.5,-15.375C90.25,-17.125 92.375,-18 94.875,-18C94.875,-15.5 94,-13.375 92.25,-11.625C90.5,-9.875 88.375,-9 85.875,-9ZM121.875,-9C121.875,-11.5 122.75,-13.625 124.5,-15.375C126.25,-17.125 128.375,-18 130.875,-18C130.875,-15.5833 129.979,-13.4792 128.188,-11.6875C126.396,-9.89583 124.292,-9 121.875,-9ZM157.75,-9C157.75,-11.5 158.625,-13.625 160.375,-15.375C162.125,-17.125 164.25,-18 166.75,-18C166.75,-15.5 165.875,-13.375 164.125,-11.625C162.375,-9.875 160.25,-9 157.75,-9Z" fill="#E5E5E5" fill-opacity="1">
  </path>
  <path d="M139.75,-49.5C139.75,-47.6667 139.396,-45.9375 138.688,-44.3125C137.979,-42.6875 137.042,-41.25 135.875,-40C134.708,-38.75 133.292,-37.7708 131.625,-37.0625C129.958,-36.3542 128.208,-36 126.375,-36C124.458,-36 122.688,-36.3542 121.063,-37.0625C119.438,-37.7708 118.021,-38.7292 116.813,-39.9375C115.604,-41.1458 114.646,-42.5625 113.938,-44.1875C113.229,-45.8125 112.875,-47.5833 112.875,-49.5C112.875,-51.3333 113.229,-53.0833 113.938,-54.75C114.646,-56.4167 115.625,-57.8333 116.875,-59C118.125,-60.1667 119.563,-61.1042 121.188,-61.8125C122.813,-62.5208 124.542,-62.875 126.375,-62.875C128.208,-62.875 129.938,-62.5208 131.563,-61.8125C133.188,-61.1042 134.604,-60.1458 135.813,-58.9375C137.021,-57.7292 137.979,-56.3125 138.688,-54.6875C139.396,-53.0625 139.75,-51.3333 139.75,-49.5Z" fill="#F03A17" fill-opacity="1">
  </path>
  <path d="M220.625,-36L265.625,-45L247.625,-9L211.625,-18ZM229.625,-53.875L211.625,-71.875L238.625,-80.875L256.625,-62.875Z" fill="#F8FFB3" fill-opacity="1">
  </path>
  <path d="M252.125,-53.875C250.292,-53.875 248.562,-54.2292 246.938,-54.9375C245.312,-55.6458 243.875,-56.625 242.625,-57.875C241.375,-59.125 240.396,-60.5625 239.688,-62.1875C238.979,-63.8125 238.625,-65.5417 238.625,-67.375C238.625,-69.2083 238.979,-70.9583 239.688,-72.625C240.396,-74.2917 241.354,-75.7292 242.563,-76.9375C243.771,-78.1458 245.188,-79.1042 246.813,-79.8125C248.438,-80.5208 250.208,-80.875 252.125,-80.875C253.958,-80.875 255.688,-80.5208 257.313,-79.8125C258.938,-79.1042 260.375,-78.125 261.625,-76.875C262.875,-75.625 263.854,-74.1875 264.563,-72.5625C265.271,-70.9375 265.625,-69.2083 265.625,-67.375C265.625,-65.5417 265.271,-63.8125 264.563,-62.1875C263.854,-60.5625 262.875,-59.125 261.625,-57.875C260.375,-56.625 258.938,-55.6458 257.313,-54.9375C255.688,-54.2292 253.958,-53.875 252.125,-53.875ZM104,-143.875C104,-145.625 104.604,-147.542 105.813,-149.625C107.021,-151.708 108.521,-153.646 110.313,-155.438C112.104,-157.229 114.021,-158.729 116.063,-159.938C118.104,-161.146 120,-161.75 121.75,-161.75C123.333,-161.75 124.792,-161.438 126.125,-160.813C127.458,-160.188 128.729,-159.375 129.938,-158.375C131.146,-157.375 132.292,-156.292 133.375,-155.125C134.458,-153.958 135.5,-152.875 136.5,-151.875C137.667,-150.708 138.542,-149.479 139.125,-148.188C139.708,-146.896 140,-145.417 140,-143.75C140,-140.583 138.875,-137.875 136.625,-135.625C135.625,-134.542 134.604,-133.438 133.563,-132.313C132.521,-131.188 131.396,-130.146 130.188,-129.188C128.979,-128.229 127.708,-127.438 126.375,-126.813C125.042,-126.188 123.583,-125.875 122,-125.875C120.333,-125.875 118.833,-126.188 117.5,-126.813C116.167,-127.438 114.896,-128.25 113.688,-129.25C112.479,-130.25 111.354,-131.333 110.313,-132.5C109.271,-133.667 108.25,-134.792 107.25,-135.875C105.083,-138.208 104,-140.875 104,-143.875ZM68,-170.875C68,-172.458 68.3125,-173.917 68.9375,-175.25C69.5625,-176.583 70.3542,-177.833 71.3125,-179C72.2708,-180.167 73.3333,-181.271 74.5,-182.313C75.6667,-183.354 76.75,-184.375 77.75,-185.375C80,-187.625 82.6667,-188.75 85.75,-188.75C87.3333,-188.75 88.7917,-188.417 90.125,-187.75C91.4583,-187.083 92.7292,-186.271 93.9375,-185.313C95.1458,-184.354 96.2917,-183.292 97.375,-182.125C98.4583,-180.958 99.5,-179.875 100.5,-178.875C101.75,-177.708 102.646,-176.479 103.188,-175.188C103.729,-173.896 104,-172.375 104,-170.625C104,-168.958 103.688,-167.458 103.063,-166.125C102.438,-164.792 101.646,-163.563 100.688,-162.438C99.7292,-161.313 98.6667,-160.229 97.5,-159.188C96.3333,-158.146 95.2083,-157.125 94.125,-156.125C91.875,-153.875 89.1667,-152.75 86,-152.75C84.25,-152.75 82.3333,-153.375 80.25,-154.625C78.1667,-155.875 76.2292,-157.396 74.4375,-159.188C72.6458,-160.979 71.125,-162.938 69.875,-165.063C68.625,-167.188 68,-169.125 68,-170.875Z" fill="#FFB900" fill-opacity="1">
  </path>
  <path d="M220.625,-27L211.625,-27L211.625,-36C211.625,-41 212.563,-45.6667 214.438,-50C216.313,-54.3333 218.875,-58.125 222.125,-61.375C225.375,-64.625 229.188,-67.1875 233.563,-69.0625C237.938,-70.9375 242.625,-71.875 247.625,-71.875C250.125,-71.875 252.25,-71 254,-69.25C255.75,-67.5 256.625,-65.375 256.625,-62.875C256.625,-57.875 255.688,-53.2083 253.813,-48.875C251.938,-44.5417 249.375,-40.75 246.125,-37.5C242.875,-34.25 239.063,-31.6875 234.688,-29.8125C230.313,-27.9375 225.625,-27 220.625,-27Z" fill="#8CBD18" fill-opacity="1">
  </path>
  <path d="M274.625,-9C269.625,-9 264.938,-9.9375 260.563,-11.8125C256.188,-13.6875 252.375,-16.25 249.125,-19.5C245.875,-22.75 243.313,-26.5625 241.438,-30.9375C239.563,-35.3125 238.625,-40 238.625,-45C238.625,-47.4167 239.521,-49.5 241.313,-51.25C243.104,-53 245.208,-53.875 247.625,-53.875C252.625,-53.875 257.292,-52.9375 261.625,-51.0625C265.958,-49.1875 269.75,-46.625 273,-43.375C276.25,-40.125 278.813,-36.3333 280.688,-32C282.563,-27.6667 283.5,-23 283.5,-18L283.5,-9Z" fill="#BAD80A" fill-opacity="1">
  </path>
  <path d="M274.625,-143.75C277.042,-143.75 279.125,-142.854 280.875,-141.063C282.625,-139.271 283.5,-137.167 283.5,-134.75C283.5,-132.25 283.042,-129.917 282.125,-127.75C281.208,-125.583 279.938,-123.687 278.313,-122.063C276.688,-120.437 274.792,-119.167 272.625,-118.25C270.458,-117.333 268.125,-116.875 265.625,-116.875L184.75,-116.875C182.333,-116.875 180.229,-117.75 178.438,-119.5C176.646,-121.25 175.75,-123.333 175.75,-125.75C175.75,-129.083 176.542,-132.083 178.125,-134.75L166.75,-134.75L166.75,-152.75C166.75,-156.167 167.604,-159.292 169.313,-162.125C171.021,-164.958 173.375,-167.167 176.375,-168.75C177.208,-172.917 178.729,-176.771 180.938,-180.313C183.146,-183.854 185.813,-186.896 188.938,-189.438C192.063,-191.979 195.563,-193.979 199.438,-195.438C203.313,-196.896 207.375,-197.625 211.625,-197.625L256.625,-197.625C260.375,-197.625 263.875,-196.917 267.125,-195.5C270.375,-194.083 273.208,-192.167 275.625,-189.75C278.042,-187.333 279.958,-184.5 281.375,-181.25C282.792,-178 283.5,-174.5 283.5,-170.75L273.625,-165.75C274.125,-164.667 274.458,-163.167 274.625,-161.25C274.792,-159.333 274.875,-157.292 274.875,-155.125C274.875,-152.958 274.833,-150.854 274.75,-148.813C274.667,-146.771 274.625,-145.083 274.625,-143.75Z" fill="#F7630C" fill-opacity="1">
  </path>
  <path d="M186.5,-170.75L192.375,-173.625L196.5,-170.75L205.5,-152.75L202.375,-149.375L195.375,-152.75ZM213.375,-170.75L217.875,-173.625L223.5,-170.75L232.375,-152.75L230.5,-149.375L222.375,-152.75ZM250.375,-170.75L259.375,-152.75L255.625,-149.375L249.375,-152.75L240.375,-170.75L245.625,-173.625ZM207.25,-125.75C206.417,-125.75 205.625,-126 204.875,-126.5C204.125,-127 203.542,-127.583 203.125,-128.25L195.375,-143.75L199.625,-146.875L205.5,-143.75C205.833,-143.083 206.354,-142.125 207.063,-140.875C207.771,-139.625 208.458,-138.333 209.125,-137C209.792,-135.667 210.396,-134.396 210.938,-133.188C211.479,-131.979 211.75,-131.042 211.75,-130.375C211.75,-129.125 211.313,-128.042 210.438,-127.125C209.563,-126.208 208.5,-125.75 207.25,-125.75ZM234.125,-125.75C232.208,-125.75 230.875,-126.583 230.125,-128.25L222.375,-143.75L226.5,-146.875L232.375,-143.75C232.708,-143 233.229,-142.021 233.938,-140.813C234.646,-139.604 235.354,-138.333 236.063,-137C236.771,-135.667 237.375,-134.375 237.875,-133.125C238.375,-131.875 238.625,-130.917 238.625,-130.25C238.625,-129.083 238.167,-128.042 237.25,-127.125C236.333,-126.208 235.292,-125.75 234.125,-125.75ZM259.375,-143.75C259.708,-143 260.229,-142.021 260.938,-140.813C261.646,-139.604 262.354,-138.333 263.063,-137C263.771,-135.667 264.375,-134.375 264.875,-133.125C265.375,-131.875 265.625,-130.917 265.625,-130.25C265.625,-129.083 265.167,-128.042 264.25,-127.125C263.333,-126.208 262.292,-125.75 261.125,-125.75C259.208,-125.75 257.875,-126.583 257.125,-128.25L249.375,-143.75L253.5,-146.875ZM193.75,-184.25C193.75,-185.417 194.188,-186.458 195.063,-187.375C195.938,-188.292 196.958,-188.75 198.125,-188.75C199.208,-188.75 200.125,-188.438 200.875,-187.813C201.625,-187.188 202.271,-186.396 202.813,-185.438C203.354,-184.479 203.833,-183.479 204.25,-182.438C204.667,-181.396 205.083,-180.5 205.5,-179.75L201.625,-176.875L195.375,-179.75C194.958,-180.583 194.583,-181.313 194.25,-181.938C193.917,-182.563 193.75,-183.333 193.75,-184.25ZM220.625,-184.25C220.625,-185.417 221.083,-186.458 222,-187.375C222.917,-188.292 223.958,-188.75 225.125,-188.75C226.208,-188.75 227.125,-188.417 227.875,-187.75C228.625,-187.083 229.25,-186.292 229.75,-185.375C230.25,-184.458 230.708,-183.479 231.125,-182.438C231.542,-181.396 231.958,-180.5 232.375,-179.75L227.875,-176.875L222.375,-179.75C221.958,-180.417 221.563,-181.125 221.188,-181.875C220.813,-182.625 220.625,-183.417 220.625,-184.25ZM252.125,-188.75C253.208,-188.75 254.125,-188.417 254.875,-187.75C255.625,-187.083 256.25,-186.292 256.75,-185.375C257.25,-184.458 257.708,-183.479 258.125,-182.438C258.542,-181.396 258.958,-180.5 259.375,-179.75L256.625,-176.875L249.375,-179.75C248.958,-180.417 248.563,-181.125 248.188,-181.875C247.813,-182.625 247.625,-183.417 247.625,-184.25C247.625,-185.417 248.083,-186.458 249,-187.375C249.917,-188.292 250.958,-188.75 252.125,-188.75Z" fill="#CA5010" fill-opacity="1">
  </path>
  <path d="M274.625,-143.75C261.708,-143.75 248.896,-143.771 236.188,-143.813C223.479,-143.854 210.667,-143.875 197.75,-143.875C193.583,-143.875 189.854,-143.313 186.563,-142.188C183.271,-141.063 180.458,-138.583 178.125,-134.75L166.75,-134.75C166.75,-137.25 167.208,-139.583 168.125,-141.75C169.042,-143.917 170.313,-145.813 171.938,-147.438C173.563,-149.063 175.479,-150.354 177.688,-151.313C179.896,-152.271 182.25,-152.75 184.75,-152.75L265.625,-152.75C268.042,-152.75 270.146,-151.854 271.938,-150.063C273.729,-148.271 274.625,-146.167 274.625,-143.75ZM274.625,-179.75C277.042,-179.75 279.125,-178.854 280.875,-177.063C282.625,-175.271 283.5,-173.167 283.5,-170.75C283.5,-168.333 282.625,-166.229 280.875,-164.438C279.125,-162.646 277.042,-161.75 274.625,-161.75C274.625,-164.167 273.729,-166.271 271.938,-168.063C270.146,-169.854 268.042,-170.75 265.625,-170.75L184.75,-170.75C182.417,-170.75 179.958,-170.208 177.375,-169.125C178.792,-172.292 181,-174.854 184,-176.813C187,-178.771 190.25,-179.75 193.75,-179.75Z" fill="#F2D6C9" fill-opacity="1">
  </path>
  <path d="M295.625,-107.875L295.625,-98.875L202.75,-98.875L202.75,3.125L193.75,3.125L193.75,-98.875L55.875,-98.875L55.875,-107.875L148.75,-107.875L148.75,-209.125L157.75,-209.125L157.75,-107.875Z" fill="#757575" fill-opacity="1">
  </path>
</svg>