<svg xmlns="http://www.w3.org/2000/svg" viewBox="0 0 357.42 357.42"><defs><style>.cls-1{fill:#d1d3d4;stroke:#808285;}.cls-1,.cls-2,.cls-3,.cls-4,.cls-5,.cls-7{stroke-miterlimit:10;}.cls-2{fill:#58595b;stroke-width:2px;}.cls-2,.cls-3{stroke:#231f20;}.cls-3{fill:#414042;}.cls-4{fill:#231f20;}.cls-4,.cls-5,.cls-7{stroke:#414042;}.cls-5,.cls-6{fill:#fff;}.cls-7{fill:none;}</style></defs><g id="Layer_2" data-name="Layer 2"><g id="Layer_1-2" data-name="Layer 1"><g id="Layer_8" data-name="Layer 8"><circle class="cls-1" cx="178.71" cy="178.71" r="166"/><path class="cls-2" d="M331.65,164.93l24.62-17.41-8.19-30.58-30-2.77L304.27,90.31l12.62-27.39L294.5,40.53,267.11,53.15,243.25,39.37,240.72,12,208.35,3.34,192.48,25.77H164.93L147.52,1.15,116.94,9.34l-2.77,30L90.31,53.15,62.92,40.53,40.53,62.92,53.15,90.31,39.37,114.17l-30,2.77L1.15,147.52l24.62,17.41v27.55L1.15,209.9l8.19,30.58,30,2.77,13.78,23.86L40.53,294.5l22.39,22.39,27.39-12.62,23.86,13.78,2.77,30,30.58,8.19,17.41-24.62h27.55l17.42,24.62,30.58-8.19,2.77-30,23.86-13.78,27.39,12.62,22.39-22.39-12.62-27.39,13.78-23.86,30-2.77,8.19-30.58-24.62-17.42ZM178.71,278.1c-55.9,0-101.21-44.5-101.21-99.39s45.31-99.39,101.21-99.39,101.21,44.5,101.21,99.39S234.61,278.1,178.71,278.1Z"/><path class="cls-3" d="M178.71,307.9A129.19,129.19,0,1,1,307.9,178.71C307.9,249.94,249.94,307.9,178.71,307.9Zm0-251.81A122.62,122.62,0,1,0,301.33,178.71,122.76,122.76,0,0,0,178.71,56.09Z"/></g><g id="Layer_5" data-name="Layer 5"><path class="cls-4" d="M233.15,113.49H124.27a2.65,2.65,0,0,0-2.65,2.65v19.41a2.65,2.65,0,0,0,2.65,2.65H160.9a2.65,2.65,0,0,1,2.65,2.65v61.07a.12.12,0,0,0,.22.08l30.07-35.85a.13.13,0,0,0,0-.08V140.85a2.65,2.65,0,0,1,2.65-2.65h36.63a2.65,2.65,0,0,0,2.65-2.65V116.14A2.65,2.65,0,0,0,233.15,113.49Z"/><path class="cls-5" d="M163.55,201.75v39.51a2.66,2.66,0,0,0,2.66,2.66h25a2.66,2.66,0,0,0,2.66-2.66V165.93a.14.14,0,0,0-.24-.09l-30,35.82A.16.16,0,0,0,163.55,201.75Z"/><path class="cls-6" d="M163.55,193.08v2.31c0,.22.12.27.26.1L187,168a.4.4,0,0,0,0-.56l-.73-.62a.41.41,0,0,0-.57.05L163.8,192.77Z"/><path class="cls-7" d="M163.55,193.08v2.31c0,.22.12.27.26.1L187,168a.4.4,0,0,0,0-.56l-.73-.62a.41.41,0,0,0-.57.05L163.8,192.77Z"/></g></g></g></svg>